<?xml version="1.0" encoding="UTF-8" standalone="no"?>
<!DOCTYPE svg PUBLIC "-//W3C//DTD SVG 1.1//EN" "http://www.w3.org/Graphics/SVG/1.1/DTD/svg11.dtd">
<svg version="1.1" xmlns="http://www.w3.org/2000/svg" xmlns:xlink="http://www.w3.org/1999/xlink" preserveAspectRatio="xMidYMid meet" viewBox="0 0 128 128" width="128" height="128"><defs><path d="M105.74 33.2C111.33 33.2 115.87 37.73 115.87 43.33C115.87 53.62 115.87 74.38 115.87 84.67C115.87 90.27 111.33 94.8 105.74 94.8C85.67 94.8 35.59 94.8 15.52 94.8C9.93 94.8 5.39 90.27 5.39 84.67C5.39 74.38 5.39 53.62 5.39 43.33C5.39 37.73 9.93 33.2 15.52 33.2C35.59 33.2 85.67 33.2 105.74 33.2Z" id="bsxqjtM7l"></path><path d="M19.89 51.06L82.86 51.06L82.86 54.71L19.89 54.71L19.89 51.06Z" id="jaIkANYKz"></path><path d="M19.89 61.12L82.86 61.12L82.86 64.77L19.89 64.77L19.89 61.12Z" id="fqkuBuEb7"></path><path d="M19.89 71.18L82.86 71.18L82.86 74.83L19.89 74.83L19.89 71.18Z" id="a39D14WCd"></path><path d="M120.54 39L120.54 39L98.06 64.05L120.13 86.89L120.54 39Z" id="a8wuX9NVN"></path><path d="M120.54 70.8L120.54 39L125.2 39L125.2 86.89L120.54 86.89L120.54 70.8Z" id="d21zgwOuYF"></path><path d="M2.8 67.27L14.29 67.27L14.29 83.24L2.8 83.24L2.8 67.27Z" id="a312R2Gwc0"></path></defs><g><g><g><use xlink:href="#bsxqjtM7l" opacity="1" fill="#8d8d8d" fill-opacity="1"></use></g><g><g><use xlink:href="#jaIkANYKz" opacity="1" fill="#b6b4b4" fill-opacity="1"></use></g><g><use xlink:href="#fqkuBuEb7" opacity="1" fill="#b6b4b4" fill-opacity="1"></use></g><g><use xlink:href="#a39D14WCd" opacity="1" fill="#b6b4b4" fill-opacity="1"></use></g></g><g><g><use xlink:href="#a8wuX9NVN" opacity="1" fill="#d4d4d4" fill-opacity="1"></use></g><g><use xlink:href="#d21zgwOuYF" opacity="1" fill="#b7b4b4" fill-opacity="1"></use></g></g><g><use xlink:href="#a312R2Gwc0" opacity="1" fill="#8d8d8d" fill-opacity="1"></use></g></g></g></svg>